<svg xmlns="http://www.w3.org/2000/svg" version="1.1" xmlns:xlink="http://www.w3.org/1999/xlink" xmlns:svgjs="http://svgjs.dev/svgjs" width="100%" height="100%" viewBox="0 0 1000 600"><rect width="1000" height="600" x="0" y="0" fill="#FFFF"/><g><circle r="166.66666666666666" cx="380.5040842692057" cy="402.7264184892736" fill="#292826" transform="matrix(0.5845559230806788,0,0,0.5845559230806789,0,64.58387569566541)"/><path d="M381.35023997531414 477.72644252964005L381.35023997531414 477.72644252964005Q364.1356902257181 477.72644252964005 351.93961938617383 471.42416668910994Q339.7435485466295 465.12189084857994 330.2901347858344 453.15923763275896L330.2901347858344 453.15923763275896L343.74082535289165 439.7085470657017Q350.6849996586609 449.3662012472547 359.70075537497473 454.2971485484102Q368.745688294254 459.22809584956565 381.99213844055333 459.22809584956565L381.99213844055333 459.22809584956565Q395.00517096312933 459.22809584956565 402.8830157637919 453.5677184742748Q410.7608605644545 447.90734109898386 410.7608605644545 438.0162692937075L410.7608605644545 438.0162692937075Q410.7608605644545 429.81747526042534 406.96782417895025 424.7989963503736Q403.20396499641146 419.75134023735643 396.78498034401974 416.4834935052298Q390.39517289459343 413.24482397606846 382.809100123585 410.61887570918094Q375.252204555542 407.9929274422934 367.695308987499 404.9293211309246Q360.138413419456 401.8948920225213 353.8361375789259 397.37242556288163Q347.53386173839584 392.849959103242 343.6532937439954 385.4973039559569Q339.7435485466295 378.14464880867183 339.7435485466295 367.02813447884796L339.7435485466295 367.02813447884796Q339.7435485466295 354.6278232185457 345.75405235750543 345.90383953188604Q351.7353789654159 337.17985584522637 362.12246322110434 332.4531489648288Q372.5387246797582 327.72644208443126 385.5517572023342 327.72644208443126L385.5517572023342 327.72644208443126Q399.84858665538854 327.72644208443126 411.16934140597033 333.29928785082586Q422.5192733595175 338.8721336172206 429.66768808604473 347.8878893335344L429.66768808604473 347.8878893335344L416.21699751898745 361.33857990059164Q409.7104812576995 353.78168433254865 402.24111729855275 349.9886479470444Q394.8009305423714 346.22478876450566 385.1432763608184 346.22478876450566L385.1432763608184 346.22478876450566Q373.35568636278987 346.22478876450566 366.4406892599861 351.359976486419Q359.4965149542168 356.5243414112978 359.4965149542168 365.74433754836963L359.4965149542168 365.74433754836963Q359.4965149542168 373.0969926956547 363.37708294861727 377.6194591552943Q367.2868281459832 382.14192561493394 373.58910398651324 385.293063535199Q379.8913798270433 388.44420145546405 387.53580700398254 391.0701497223516Q395.20941138388724 393.6960979892391 402.76630695193023 396.8472359095041Q410.3523797229386 399.99837382976915 416.65465556346874 404.84178952202836Q422.9569314039988 409.6560280113222 426.83749939839925 417.3296323912268Q430.7180673927997 425.0032367711315 430.7180673927997 436.5574091454366L430.7180673927997 436.5574091454366Q430.7180673927997 455.87271750854273 417.38408563760413 466.81416862057404Q404.05010388240856 477.72644252964005 381.35023997531414 477.72644252964005Z " fill="#FFFF" transform="matrix(0.5845559230806788,0,0,0.5845559230806789,0,64.58387569566541)"/><path d="M681.5642063449429 477.72644252964005L681.5642063449429 477.72644252964005Q664.3496565953469 477.72644252964005 652.1535857558026 471.42416668910994Q639.9575149162583 465.12189084857994 630.5041011554632 453.15923763275896L630.5041011554632 453.15923763275896L643.9547917225204 439.7085470657017Q650.8989660282897 449.3662012472547 659.9147217446036 454.2971485484102Q668.9596546638828 459.22809584956565 682.2061048101821 459.22809584956565L682.2061048101821 459.22809584956565Q695.2191373327581 459.22809584956565 703.0969821334207 453.5677184742748Q710.9748269340832 447.90734109898386 710.9748269340832 438.0162692937075L710.9748269340832 438.0162692937075Q710.9748269340832 429.81747526042534 707.1817905485791 424.7989963503736Q703.4179313660403 419.75134023735643 696.9989467136486 416.4834935052298Q690.6091392642222 413.24482397606846 683.0230664932138 410.61887570918094Q675.4661709251709 407.9929274422934 667.9092753571279 404.9293211309246Q660.3523797890848 401.8948920225213 654.0501039485548 397.37242556288163Q647.7478281080247 392.849959103242 643.8672601136243 385.4973039559569Q639.9575149162583 378.14464880867183 639.9575149162583 367.02813447884796L639.9575149162583 367.02813447884796Q639.9575149162583 354.6278232185457 645.9680187271342 345.90383953188604Q651.9493453350447 337.17985584522637 662.3364295907331 332.4531489648288Q672.7526910493871 327.72644208443126 685.765723571963 327.72644208443126L685.765723571963 327.72644208443126Q700.0625530250175 327.72644208443126 711.3833077755992 333.29928785082586Q722.7332397291464 338.8721336172206 729.8816544556735 347.8878893335344L729.8816544556735 347.8878893335344L716.4309638886164 361.33857990059164Q709.9244476273284 353.78168433254865 702.4550836681815 349.9886479470444Q695.0148969120003 346.22478876450566 685.3572427304472 346.22478876450566L685.3572427304472 346.22478876450566Q673.5696527324187 346.22478876450566 666.6546556296148 351.359976486419Q659.7104813238457 356.5243414112978 659.7104813238457 365.74433754836963L659.7104813238457 365.74433754836963Q659.7104813238457 373.0969926956547 663.5910493182462 377.6194591552943Q667.5007945156119 382.14192561493394 673.8030703561421 385.293063535199Q680.1053461966721 388.44420145546405 687.7497733736113 391.0701497223516Q695.423377753516 393.6960979892391 702.980273321559 396.8472359095041Q710.5663460925675 399.99837382976915 716.8686219330975 404.84178952202836Q723.1708977736276 409.6560280113222 727.051465768028 417.3296323912268Q730.9320337624285 425.0032367711315 730.9320337624285 436.5574091454366L730.9320337624285 436.5574091454366Q730.9320337624285 455.87271750854273 717.598052007233 466.81416862057404Q704.2640702520374 477.72644252964005 681.5642063449429 477.72644252964005ZM809.3020009275385 475.62568391613L789.5490345199514 475.62568391613L789.5490345199514 334.0287179249613L809.3020009275385 334.0287179249613L809.3020009275385 475.62568391613ZM858.6698283450241 347.8878893335344L739.9769666817078 347.8878893335344L739.9769666817078 329.8272006979413L858.6698283450241 329.8272006979413L858.6698283450241 347.8878893335344ZM931.1460005111201 416.3959618963335L918.5414488300598 416.3959618963335L861.17906780005 329.8272006979413L884.0831721279023 329.8272006979413L930.299861625123 400.64027229500834L920.0003089783308 400.64027229500834L966.4212388963092 329.8272006979413L988.9168623826456 329.8272006979413L931.1460005111201 416.3959618963335ZM934.9098596936587 475.62568391613L915.1568932860714 475.62568391613L915.1568932860714 403.3537521707921L934.9098596936587 403.3537521707921L934.9098596936587 475.62568391613ZM1026.730517425826 475.62568391613L1006.9775510182387 475.62568391613L1006.9775510182387 329.8272006979413L1026.730517425826 329.8272006979413L1026.730517425826 475.62568391613ZM1098.5647911266828 475.62568391613L1020.4282415852961 475.62568391613L1020.4282415852961 457.5649952805369L1098.5647911266828 457.5649952805369L1098.5647911266828 475.62568391613ZM1172.4998234410496 477.72644252964005L1172.4998234410496 477.72644252964005Q1156.3356529982084 477.72644252964005 1143.6143925052866 470.49049619421663Q1130.9223092153302 463.22537265582775 1123.569654068045 450.5332893658714Q1116.21699892076 437.81202887294955 1116.21699892076 421.64785843010856L1116.21699892076 421.64785843010856L1116.21699892076 329.8272006979413L1135.9699653283474 329.8272006979413L1135.9699653283474 421.21020038562733Q1135.9699653283474 432.7643727599324 1140.7842038176411 441.1674072139725Q1145.6276195099003 449.5704416680126 1153.9139451520787 454.2096169395139Q1162.2294479972227 458.8196150080498 1172.4998234410496 458.8196150080498L1172.4998234410496 458.8196150080498Q1183.237034132323 458.8196150080498 1191.3191193537434 454.2096169395139Q1199.401204575164 449.5704416680126 1204.1279114555614 441.1674072139725Q1208.854618335959 432.7643727599324 1208.854618335959 421.41444080638524L1208.854618335959 421.41444080638524L1208.854618335959 329.8272006979413L1228.8118251643043 329.8272006979413L1228.8118251643043 421.85209885086647Q1228.8118251643043 438.0162692937075 1221.4591700170192 450.62082097476764Q1214.1065148697342 463.22537265582775 1201.501963188674 470.49049619421663Q1188.8974115076137 477.72644252964005 1172.4998234410496 477.72644252964005ZM1379.220306451029 475.62568391613L1356.1119617024187 475.62568391613L1310.3329302496795 408.80988912532507L1306.7441342849331 408.80988912532507L1249.1775128341656 329.8272006979413L1272.7235156272568 329.8272006979413L1318.0940662384803 392.6457186824841L1321.6536850002612 392.6457186824841L1379.220306451029 475.62568391613ZM1268.930479241753 475.62568391613L1246.6682733791395 475.62568391613L1303.1845155231522 398.101855637017L1316.6352060902095 409.8602684320801L1268.930479241753 475.62568391613ZM1376.9153074167612 329.8272006979413L1322.9374819307395 405.25027036354425L1309.6910317844404 393.4918575684812L1354.6531015541477 329.8272006979413L1376.9153074167612 329.8272006979413ZM1419.5723781522006 475.62568391613L1399.8194117446133 475.62568391613L1399.8194117446133 329.8272006979413L1419.5723781522006 329.8272006979413L1419.5723781522006 475.62568391613ZM1496.8627888075903 475.62568391613L1413.2701023116706 475.62568391613L1413.2701023116706 457.5649952805369L1496.8627888075903 457.5649952805369L1496.8627888075903 475.62568391613ZM1489.9477917047866 409.6560280113222L1413.2701023116706 409.6560280113222L1413.2701023116706 392.44147826172616L1489.9477917047866 392.44147826172616L1489.9477917047866 409.6560280113222ZM1495.8124095008352 347.8878893335344L1413.2701023116706 347.8878893335344L1413.2701023116706 329.8272006979413L1495.8124095008352 329.8272006979413L1495.8124095008352 347.8878893335344Z " fill="#" transform="matrix(0.5845559230806788,0,0,0.5845559230806789,0,64.58387569566541)"/></g></svg>